# xmcd CD database file
#
# Track frame offsets:
#	150
#	47144
#	62249
#	103625
#	122404
#	162488
#	192397
#	207199
#
# Disc length: 3196 seconds
#
# Revision: 0
# Processed by: cddbd v1.5.2PL0 Copyright (c) Steve Scherf et al.
# Submitted via: CDex 1.70beta2
#
DISCID=700c7a08
DTITLE=Matthew Shipp - Piano Vortex
DYEAR=2007
DGENRE=Jazz
TTITLE0=Piano Vortex
TTITLE1=Key Swing
TTITLE2=The New Circumstance
TTITLE3=Nooks and Corners
TTITLE4=Sliding Through Space
TTITLE5=Quivering with Speed
TTITLE6=Slips Through the Fingers
TTITLE7=To Vitalize
EXTD=YEAR: 2007
EXTT0=
EXTT1=
EXTT2=
EXTT3=
EXTT4=
EXTT5=
EXTT6=
EXTT7=
PLAYORDER=
